<svg width="29" height="29" viewBox="0 0 29 29" fill="none" xmlns="http://www.w3.org/2000/svg">
<path d="M2.41699 7.25065C2.41699 6.60971 2.6716 5.99502 3.12482 5.54181C3.57803 5.0886 4.19272 4.83398 4.83366 4.83398H24.167C24.8079 4.83398 25.4226 5.0886 25.8758 5.54181C26.329 5.99502 26.5837 6.60971 26.5837 7.25065V21.7507C26.5837 22.3916 26.329 23.0063 25.8758 23.4595C25.4226 23.9127 24.8079 24.1673 24.167 24.1673H4.83366C4.19272 24.1673 3.57803 23.9127 3.12482 23.4595C2.6716 23.0063 2.41699 22.3916 2.41699 21.7507V7.25065Z" stroke="#747171" stroke-width="2.2" stroke-linecap="round" stroke-linejoin="round"/>
<path d="M2.41699 9.66797L11.4807 16.9192C12.3378 17.6049 13.4027 17.9785 14.5003 17.9785C15.598 17.9785 16.6629 17.6049 17.5199 16.9192L26.5837 9.66797" stroke="#747171" stroke-width="2.2" stroke-linejoin="round"/>
</svg>
