<svg width="30" height="24" viewBox="0 0 30 24" fill="none" xmlns="http://www.w3.org/2000/svg">
<path d="M26.0003 23.9995C25.8689 23.9997 25.7388 23.9739 25.6175 23.9236C25.4962 23.8733 25.386 23.7994 25.2934 23.7064L3.2934 1.70635C3.11378 1.51729 3.01512 1.26554 3.01846 1.00478C3.02179 0.744015 3.12686 0.494873 3.31127 0.310471C3.49567 0.12607 3.74481 0.0209987 4.00557 0.0176602C4.26633 0.0143216 4.51808 0.11298 4.70714 0.2926L26.7071 22.2926C26.8469 22.4325 26.9421 22.6106 26.9806 22.8045C27.0192 22.9984 26.9994 23.1994 26.9237 23.3821C26.8481 23.5648 26.72 23.7209 26.5556 23.8308C26.3912 23.9407 26.198 23.9994 26.0003 23.9995ZM14.979 19.9995C12.3859 19.9995 9.88527 19.232 7.54652 17.7182C5.41715 16.3432 3.50027 14.3738 2.00277 12.0307V12.0257C3.24902 10.2401 4.61402 8.7301 6.08027 7.5126C6.09353 7.50151 6.10435 7.48779 6.11204 7.47231C6.11974 7.45682 6.12413 7.43991 6.12495 7.42264C6.12578 7.40537 6.12301 7.38812 6.11682 7.37198C6.11064 7.35583 6.10117 7.34115 6.08902 7.32885L4.84402 6.08572C4.8219 6.06342 4.79218 6.05026 4.7608 6.04887C4.72941 6.04748 4.69865 6.05796 4.67464 6.07822C3.11715 7.39072 1.67152 9.00072 0.357145 10.8857C0.13101 11.2103 0.00646927 11.5948 -0.000653042 11.9903C-0.00777535 12.3858 0.102843 12.7745 0.317145 13.107C1.96777 15.6901 4.09214 17.8657 6.45964 19.3976C9.12527 21.1245 11.994 21.9995 14.979 21.9995C16.5902 21.9945 18.1901 21.729 19.7165 21.2132C19.7367 21.2064 19.7547 21.1945 19.769 21.1788C19.7833 21.163 19.7933 21.1439 19.7981 21.1232C19.8029 21.1025 19.8024 21.0809 19.7965 21.0604C19.7907 21.04 19.7797 21.0214 19.7646 21.0063L18.4159 19.6576C18.3848 19.6273 18.3465 19.6056 18.3045 19.5947C18.2625 19.5837 18.2184 19.5839 18.1765 19.5951C17.132 19.8641 16.0576 19.9999 14.979 19.9995ZM29.6778 10.912C28.024 8.35448 25.8784 6.18197 23.4734 4.62885C20.8128 2.90885 17.8753 1.99947 14.979 1.99947C13.3849 2.0023 11.8026 2.27338 10.2984 2.80135C10.2784 2.80832 10.2604 2.82028 10.2463 2.83611C10.2321 2.85193 10.2223 2.87109 10.2176 2.89178C10.2129 2.91248 10.2135 2.93403 10.2195 2.9544C10.2254 2.97477 10.2364 2.99329 10.2515 3.00822L11.5984 4.3551C11.6298 4.38592 11.6687 4.40793 11.7113 4.4189C11.7538 4.42988 11.7985 4.42943 11.8409 4.4176C12.864 4.14084 13.9191 4.00025 14.979 3.99947C17.5221 3.99947 20.0153 4.77635 22.3884 6.31197C24.5578 7.71197 26.4971 9.67947 27.9984 11.9995C27.9995 12.0009 28.0001 12.0027 28.0001 12.0045C28.0001 12.0063 27.9995 12.008 27.9984 12.0095C26.9087 13.7251 25.5564 15.2589 23.9909 16.5551C23.9775 16.5661 23.9665 16.5799 23.9587 16.5954C23.9509 16.6109 23.9464 16.6279 23.9455 16.6452C23.9447 16.6626 23.9474 16.6799 23.9536 16.6961C23.9598 16.7124 23.9693 16.7271 23.9815 16.7395L25.2253 17.9826C25.2473 18.0048 25.2768 18.018 25.3081 18.0195C25.3393 18.021 25.37 18.0107 25.394 17.9907C27.0653 16.5835 28.5119 14.9295 29.684 13.0857C29.8912 12.7608 30.0007 12.3833 29.9996 11.9979C29.9985 11.6126 29.8868 11.2357 29.6778 10.912Z" fill="#747171"/>
</svg>
