<svg width="289" height="98" viewBox="0 0 289 98" fill="none" xmlns="http://www.w3.org/2000/svg">
<g clip-path="url(#clip0_555_23)">
<path d="M96.9844 6.94711L102.219 2.26245C102.219 2.26245 104.812 -0.103491 107.054 3.66501C107.054 3.66501 115.399 22.602 118.187 28.7837C118.187 28.7837 125.035 43.5318 131.283 50.4219C131.283 50.4219 132.677 51.39 131.283 52.7406L126.897 55.7677C126.897 55.7677 124.172 58.1525 122.31 55.0593C120.775 51.6402 119.205 48.2307 117.651 44.8211C114.585 38.0963 111.417 31.4093 108.19 24.7554C106.089 20.4249 103.949 16.0095 101.469 11.8726C100.854 10.8478 100.26 9.79474 99.4945 8.86914C99.2606 8.59051 97.3646 6.61181 96.9893 6.95183L96.9844 6.94711Z" fill="white"/>
<path d="M140.257 58.3406C139.302 57.2355 138.678 55.7669 138.049 54.4824C133.512 45.25 130.095 35.6304 126.303 26.1099C124.051 20.4525 121.575 14.8328 118.392 9.6003C117.305 7.81522 116.155 5.69484 114.444 4.36784C114.444 4.36784 114.069 3.59336 116.062 2.11524C116.062 2.11524 120.381 -1.87995 124.173 2.11524C124.173 2.11524 126.235 4.11283 128.428 9.26501C128.428 9.26501 142.919 47.3279 145.512 51.1908C145.512 51.1908 146.111 52.1589 146.574 52.2203C146.574 52.2203 151.76 48.6785 159.335 32.8347C163.892 23.3048 167.226 13.3499 165.583 2.62998C165.456 1.79411 165.266 1.25575 166.309 0.72684C167.079 0.334877 168.4 0.160147 169.258 0.0704208C170.599 -0.0759748 172.227 -0.0523626 173.382 0.717395C174.902 1.72327 174.932 3.8956 175 5.50595C175.185 9.93087 174.088 14.3463 172.675 18.5163C171.422 22.2139 170.097 25.8644 168.313 29.359C167.045 31.8477 165.666 34.2892 164.321 36.7402C161.206 42.4212 157.916 48.0315 154.295 53.4245C154.295 53.4245 140.75 77.0839 135.364 77.1831C135.364 77.1831 130.577 76.4086 129.778 71.1951C129.778 71.1951 128.828 67.3321 131.893 67.1385C131.893 67.1385 135.461 66.2696 136.358 64.7253C136.358 64.7253 139.75 61.4385 140.847 59.4126L140.248 58.35L140.257 58.3406Z" fill="white"/>
<path d="M185.328 4.44303H185.128C185.128 5.40169 184.728 6.27061 184.075 6.90342C183.427 7.5315 182.53 7.92347 181.536 7.92347C180.542 7.92347 179.65 7.53623 178.996 6.90342C178.348 6.27534 177.944 5.40641 177.944 4.44303C177.944 3.48438 178.343 2.61545 178.996 1.98264C179.645 1.35456 180.542 0.962595 181.536 0.962595C182.53 0.962595 183.422 1.34984 184.075 1.98264C184.723 2.61073 185.128 3.47965 185.128 4.44303H185.528C185.528 2.30849 183.744 0.580078 181.541 0.580078C179.338 0.580078 177.554 2.30849 177.554 4.44303C177.554 6.57757 179.338 8.30598 181.541 8.30598C183.744 8.30598 185.528 6.57757 185.528 4.44303H185.328Z" fill="white"/>
<path d="M180.488 2.93721C180.698 2.89471 181 2.87109 181.288 2.87109C181.731 2.87109 182.019 2.95138 182.219 3.12611C182.379 3.26306 182.472 3.48029 182.472 3.72113C182.472 4.13198 182.204 4.40589 181.863 4.51922V4.53339C182.111 4.6184 182.262 4.84035 182.336 5.16148C182.443 5.59594 182.516 5.89818 182.584 6.02096H182.155C182.102 5.93123 182.029 5.66205 181.941 5.27481C181.843 4.84507 181.673 4.67979 181.297 4.66562H180.907V6.02096H180.493V2.93721H180.488ZM180.903 4.35866H181.327C181.77 4.35866 182.053 4.12254 182.053 3.76363C182.053 3.36223 181.751 3.18277 181.312 3.17805C181.112 3.17805 180.966 3.19694 180.903 3.21583V4.35394V4.35866Z" fill="white"/>
<path d="M10.9082 77.1794L0 37.3457H5.58084L11.8343 63.456C12.5069 66.1903 13.087 68.9105 13.5744 71.607C14.6223 67.3521 15.2364 64.8964 15.4265 64.2447L23.2495 37.3457H29.81L35.6979 57.5058C37.1748 62.5068 38.2422 67.2057 38.8953 71.607C39.4168 69.0899 40.0992 66.1998 40.9424 62.9413L47.3909 37.3457H52.8596L41.5858 77.1794H36.3413L27.6751 46.8284C26.944 44.2924 26.5151 42.734 26.3835 42.1531C25.9546 43.9854 25.55 45.5391 25.1796 46.8284L16.4598 77.1794H10.9082Z" fill="white"/>
<path d="M56.7297 88.134L56.1691 83.5437C57.2707 83.8318 58.2357 83.9782 59.0595 83.9782C60.1805 83.9782 61.0774 83.7988 61.75 83.4351C62.4226 83.0715 62.9734 82.5662 63.4023 81.9145C63.7191 81.4234 64.2358 80.2097 64.9425 78.2735C65.0351 77.9996 65.1862 77.6029 65.3909 77.0787L54.0879 48.168H59.5274L65.7272 64.876C66.5315 66.9963 67.2528 69.2206 67.8865 71.5582C68.4665 69.3103 69.1586 67.1191 69.9628 64.9846L76.3284 48.168H81.378L70.0506 77.5132C68.8369 80.6819 67.8913 82.8684 67.2187 84.0632C66.3219 85.6736 65.2934 86.8589 64.1334 87.6098C62.9734 88.3606 61.5891 88.7384 59.9807 88.7384C59.0107 88.7384 57.9238 88.5401 56.7297 88.1387V88.134Z" fill="white"/>
<path d="M87.5684 77.1796V48.3255H92.111V52.4293C94.2995 49.2606 97.4579 47.6738 101.591 47.6738C103.385 47.6738 105.037 47.9855 106.543 48.6136C108.049 49.237 109.175 50.0587 109.921 51.074C110.667 52.0893 111.193 53.2935 111.49 54.6866C111.676 55.5934 111.773 57.1754 111.773 59.4421V77.1843H106.724V59.631C106.724 57.6382 106.529 56.1506 106.134 55.1636C105.739 54.1766 105.047 53.388 104.043 52.7977C103.044 52.2074 101.869 51.9146 100.524 51.9146C98.3742 51.9146 96.5172 52.5757 94.9575 53.898C93.3978 55.2203 92.6179 57.7279 92.6179 61.4256V77.1843H87.5684V77.1796Z" fill="white"/>
<path d="M166.689 77.1796V48.3255H171.232V52.4293C173.421 49.2606 176.579 47.6738 180.712 47.6738C182.506 47.6738 184.158 47.9855 185.664 48.6136C187.17 49.237 188.296 50.0587 189.042 51.074C189.788 52.0893 190.314 53.2935 190.611 54.6866C190.797 55.5934 190.894 57.1754 190.894 59.4421V77.1843H185.845V59.631C185.845 57.6382 185.65 56.1506 185.255 55.1636C184.86 54.1766 184.163 53.388 183.164 52.7977C182.165 52.2074 180.99 51.9146 179.645 51.9146C177.495 51.9146 175.638 52.5757 174.079 53.898C172.519 55.2203 171.739 57.7279 171.739 61.4256V77.1843H166.689V77.1796Z" fill="white"/>
<path d="M194.876 68.5648L199.365 67.8044C199.618 69.7406 200.32 71.2282 201.471 72.2624C202.621 73.2966 204.229 73.8114 206.296 73.8114C208.363 73.8114 209.927 73.3533 210.936 72.4371C211.945 71.521 212.447 70.449 212.447 69.2165C212.447 68.1114 212.004 67.2425 211.112 66.6097C210.488 66.1752 208.943 65.6227 206.471 64.9521C203.142 64.0454 200.837 63.2615 199.55 62.6003C198.263 61.9392 197.289 61.023 196.626 59.8566C195.963 58.6901 195.631 57.3962 195.631 55.9842C195.631 54.6997 195.904 53.5096 196.45 52.4093C196.996 51.3137 197.742 50.4023 198.683 49.6797C199.389 49.1178 200.35 48.6408 201.568 48.2535C202.787 47.8663 204.093 47.668 205.487 47.668C207.588 47.668 209.435 47.9938 211.019 48.6455C212.608 49.2972 213.778 50.1803 214.538 51.2948C215.294 52.4093 215.815 53.9016 216.103 55.7669L211.667 56.4186C211.467 54.9311 210.883 53.7741 209.917 52.9429C208.952 52.1118 207.588 51.6915 205.823 51.6915C203.737 51.6915 202.25 52.0646 201.359 52.806C200.467 53.5474 200.023 54.4163 200.023 55.4128C200.023 56.0456 200.208 56.617 200.579 57.1223C200.949 57.6465 201.529 58.0809 202.319 58.4257C202.772 58.6051 204.108 59.0207 206.325 59.6771C209.532 60.6027 211.774 61.3583 213.042 61.9439C214.309 62.5342 215.308 63.389 216.03 64.5129C216.751 65.6368 217.112 67.03 217.112 68.697C217.112 70.364 216.673 71.861 215.786 73.3014C214.904 74.7417 213.632 75.8562 211.965 76.6448C210.303 77.4335 208.421 77.8255 206.32 77.8255C202.84 77.8255 200.189 77.0463 198.366 75.4878C196.543 73.9294 195.378 71.6202 194.876 68.56V68.5648Z" fill="white"/>
<path d="M222.581 62.7526C222.581 57.4068 224.116 53.4494 227.182 50.8804C229.741 48.7411 232.865 47.6738 236.55 47.6738C240.644 47.6738 243.993 48.9725 246.591 51.5746C249.189 54.1719 250.49 57.7657 250.49 62.3464C250.49 66.0583 249.915 68.9815 248.765 71.1113C247.614 73.2411 245.943 74.894 243.744 76.0698C241.546 77.2457 239.148 77.836 236.55 77.836C232.383 77.836 229.01 76.5421 226.441 73.9495C223.873 71.3616 222.586 67.6261 222.586 62.7573L222.581 62.7526ZM227.767 62.7526C227.767 66.4455 228.601 69.2129 230.263 71.0546C231.925 72.8916 234.021 73.8125 236.545 73.8125C239.07 73.8125 241.137 72.8869 242.799 71.0404C244.461 69.194 245.294 66.3747 245.294 62.592C245.294 59.0218 244.456 56.3206 242.784 54.4836C241.112 52.6466 239.031 51.7257 236.545 51.7257C234.06 51.7257 231.93 52.6418 230.263 54.4694C228.601 56.297 227.767 59.0596 227.767 62.7573V62.7526Z" fill="white"/>
<path d="M258.922 77.179V52.1265H254.462V48.3249H258.922V45.2553C258.922 43.3191 259.097 41.8788 259.453 40.9343C259.94 39.6687 260.793 38.6392 262.017 37.8505C263.24 37.0619 264.956 36.6699 267.164 36.6699C268.582 36.6699 270.157 36.8352 271.877 37.1611L271.122 41.4254C270.074 41.246 269.084 41.1562 268.148 41.1562C266.618 41.1562 265.531 41.4726 264.897 42.1054C264.264 42.7383 263.942 43.9236 263.942 45.6662V48.3296H269.747V52.1312H263.942V77.1837H258.922V77.179Z" fill="white"/>
<path d="M288.269 72.8049L289 77.1259C287.577 77.414 286.31 77.5604 285.184 77.5604C283.351 77.5604 281.933 77.2818 280.924 76.7198C279.915 76.1578 279.203 75.4211 278.794 74.505C278.385 73.5888 278.18 71.6668 278.18 68.7294V52.1301H274.476V48.3285H278.18V41.1834L283.2 38.2461V48.3285H288.274V52.1301H283.2V69.0033C283.2 70.3964 283.288 71.2937 283.468 71.6904C283.644 72.0871 283.936 72.4082 284.336 72.6396C284.736 72.8757 285.311 72.9938 286.061 72.9938C286.622 72.9938 287.363 72.9324 288.279 72.8049H288.269Z" fill="white"/>
<path d="M11.2297 96.645V97.6414C10.4401 97.8776 9.56764 97.9956 8.60745 97.9956C7.17933 97.9956 6.09728 97.6084 5.35642 96.8339C4.62043 96.0594 4.25 94.9969 4.25 93.651C4.25 92.1587 4.60581 90.997 5.31255 90.1658C6.02417 89.3394 7.11597 88.9238 8.58795 88.9238C9.5579 88.9238 10.4352 89.0608 11.2248 89.3347V90.3169C10.4255 90.0242 9.58227 89.8778 8.68543 89.8778C7.51077 89.8778 6.66755 90.1942 6.16065 90.8317C5.65374 91.4692 5.40029 92.409 5.40029 93.6463C5.40029 95.9036 6.50671 97.0323 8.71467 97.0323C9.66512 97.0323 10.4986 96.9 11.2248 96.6356L11.2297 96.645Z" fill="white"/>
<path d="M44.5008 97.8643H43.3018L46.7575 89.0664H48.1125L51.5536 97.8643H50.3692L49.409 95.4464H45.461L44.5008 97.8643ZM45.656 94.5586H49.1946L47.4204 90.0392L45.656 94.5586Z" fill="white"/>
<path d="M85.0429 90.8126V97.8584H83.9023V89.0605H85.1404L88.2159 95.1667L91.2866 89.0605H92.5247V97.8584H91.3841V90.8126L88.6059 96.3284H87.8309L85.038 90.8126H85.0429Z" fill="white"/>
<path d="M129.938 97.8643H125.513V89.0664H129.714C131.444 89.0664 132.307 89.8409 132.307 91.3898C132.307 91.8621 132.21 92.2635 132.01 92.5846C131.815 92.9058 131.532 93.156 131.162 93.3308C132.156 93.5669 132.658 94.2422 132.658 95.352C132.658 97.0284 131.752 97.8643 129.938 97.8643ZM130.835 90.299C130.577 90.0534 130.109 89.9306 129.431 89.9306H126.668V92.9199H129.641C130.694 92.9199 131.22 92.4382 131.22 91.4701C131.22 90.9318 131.089 90.5398 130.83 90.2942L130.835 90.299ZM131.084 96.6223C131.366 96.3579 131.508 95.9234 131.508 95.3095C131.508 94.7806 131.362 94.3933 131.069 94.143C130.777 93.8927 130.275 93.7652 129.563 93.7652H126.673V97.0143H129.743C130.353 97.0143 130.801 96.882 131.084 96.6176V96.6223Z" fill="white"/>
<path d="M172.085 96.9039C171.402 97.6312 170.349 97.9948 168.921 97.9948C167.493 97.9948 166.435 97.6312 165.758 96.9039C165.076 96.1767 164.734 95.0291 164.734 93.4613C164.734 91.8934 165.076 90.7459 165.758 90.0186C166.44 89.2914 167.493 88.9277 168.921 88.9277C170.349 88.9277 171.402 89.2914 172.085 90.0186C172.767 90.7459 173.108 91.8934 173.108 93.4613C173.108 95.0291 172.767 96.1767 172.085 96.9039ZM171.626 91.3645C171.412 90.8403 171.08 90.4625 170.642 90.2311C170.198 89.9997 169.628 89.8817 168.921 89.8817C168.214 89.8817 167.644 89.9997 167.201 90.2311C166.757 90.4625 166.431 90.8403 166.216 91.3645C166.002 91.8887 165.89 92.5876 165.89 93.4613C165.89 94.3349 165.997 95.0339 166.216 95.558C166.431 96.0822 166.762 96.46 167.201 96.6914C167.644 96.9228 168.214 97.0409 168.921 97.0409C169.628 97.0409 170.198 96.9228 170.642 96.6914C171.085 96.46 171.412 96.0822 171.626 95.558C171.841 95.0339 171.953 94.3349 171.953 93.4613C171.953 92.5876 171.846 91.8887 171.626 91.3645Z" fill="white"/>
<path d="M212.267 96.8254C211.667 97.5196 210.697 97.8643 209.362 97.8643H205.809V89.0664H209.362C210.688 89.0664 211.653 89.4159 212.257 90.1101C212.861 90.8043 213.168 91.9424 213.168 93.5197C213.168 95.097 212.866 96.1312 212.267 96.8254ZM211.731 91.3568C211.541 90.842 211.243 90.4784 210.834 90.2706C210.424 90.0628 209.864 89.9542 209.147 89.9542H206.964V96.9907H209.147C209.825 96.9907 210.366 96.8962 210.775 96.7026C211.185 96.509 211.492 96.1642 211.696 95.6637C211.901 95.1631 212.008 94.45 212.008 93.5197C212.008 92.5893 211.916 91.8668 211.726 91.3568H211.731Z" fill="white"/>
<path d="M245.874 89.0664H247.029V97.8643H245.874V89.0664Z" fill="white"/>
<path d="M280.933 97.8643H279.734L283.19 89.0664H284.545L287.986 97.8643H286.802L285.842 95.4464H281.894L280.933 97.8643ZM282.089 94.5586H285.627L283.853 90.0392L282.089 94.5586Z" fill="white"/>
</g>
<defs>
<clipPath id="clip0_555_23">
<rect width="289" height="98" fill="white"/>
</clipPath>
</defs>
</svg>
