<svg width="289" height="98" viewBox="0 0 289 98" fill="none" xmlns="http://www.w3.org/2000/svg">
<g clip-path="url(#clip0_593_104)">
<path d="M96.9844 6.94711L102.219 2.26245C102.219 2.26245 104.812 -0.103491 107.054 3.66501C107.054 3.66501 115.399 22.602 118.187 28.7837C118.187 28.7837 125.035 43.5318 131.283 50.4219C131.283 50.4219 132.677 51.39 131.283 52.7406L126.897 55.7677C126.897 55.7677 124.172 58.1525 122.31 55.0593C120.775 51.6402 119.205 48.2307 117.651 44.8211C114.585 38.0963 111.417 31.4093 108.19 24.7554C106.089 20.4249 103.949 16.0095 101.469 11.8726C100.854 10.8478 100.26 9.79474 99.4945 8.86914C99.2606 8.59051 97.3646 6.61181 96.9893 6.95183L96.9844 6.94711Z" fill="white"/>
<path d="M140.257 58.3406C139.302 57.2355 138.678 55.7669 138.049 54.4824C133.512 45.25 130.095 35.6304 126.303 26.1099C124.051 20.4525 121.575 14.8328 118.392 9.6003C117.305 7.81522 116.155 5.69484 114.444 4.36784C114.444 4.36784 114.069 3.59336 116.062 2.11524C116.062 2.11524 120.381 -1.87995 124.173 2.11524C124.173 2.11524 126.235 4.11283 128.428 9.26501C128.428 9.26501 142.919 47.3279 145.512 51.1908C145.512 51.1908 146.111 52.1589 146.574 52.2203C146.574 52.2203 151.76 48.6785 159.335 32.8347C163.892 23.3048 167.226 13.3499 165.583 2.62998C165.456 1.79411 165.266 1.25575 166.309 0.72684C167.079 0.334877 168.4 0.160147 169.258 0.0704208C170.599 -0.0759748 172.227 -0.0523626 173.382 0.717395C174.902 1.72327 174.932 3.8956 175 5.50595C175.185 9.93087 174.088 14.3463 172.675 18.5163C171.422 22.2139 170.097 25.8644 168.313 29.359C167.045 31.8477 165.666 34.2892 164.321 36.7402C161.206 42.4212 157.916 48.0315 154.295 53.4245C154.295 53.4245 140.75 77.0839 135.364 77.1831C135.364 77.1831 130.577 76.4086 129.778 71.1951C129.778 71.1951 128.828 67.3321 131.893 67.1385C131.893 67.1385 135.461 66.2696 136.358 64.7253C136.358 64.7253 139.75 61.4385 140.847 59.4126L140.248 58.35L140.257 58.3406Z" fill="white"/>
<path d="M185.328 4.44303H185.128C185.128 5.40169 184.728 6.27061 184.075 6.90342C183.427 7.5315 182.53 7.92347 181.536 7.92347C180.542 7.92347 179.65 7.53623 178.996 6.90342C178.348 6.27534 177.944 5.40641 177.944 4.44303C177.944 3.48438 178.343 2.61545 178.996 1.98264C179.645 1.35456 180.542 0.962595 181.536 0.962595C182.53 0.962595 183.422 1.34984 184.075 1.98264C184.723 2.61073 185.128 3.47965 185.128 4.44303H185.528C185.528 2.30849 183.744 0.580078 181.541 0.580078C179.338 0.580078 177.554 2.30849 177.554 4.44303C177.554 6.57757 179.338 8.30598 181.541 8.30598C183.744 8.30598 185.528 6.57757 185.528 4.44303H185.328Z" fill="white"/>
<path d="M180.488 2.93721C180.698 2.89471 181 2.87109 181.288 2.87109C181.731 2.87109 182.019 2.95138 182.219 3.12611C182.379 3.26306 182.472 3.48029 182.472 3.72113C182.472 4.13198 182.204 4.40589 181.863 4.51922V4.53339C182.111 4.6184 182.262 4.84035 182.336 5.16148C182.443 5.59594 182.516 5.89818 182.584 6.02096H182.155C182.102 5.93123 182.029 5.66205 181.941 5.27481C181.843 4.84507 181.673 4.67979 181.297 4.66562H180.907V6.02096H180.493V2.93721H180.488ZM180.903 4.35866H181.327C181.77 4.35866 182.053 4.12254 182.053 3.76363C182.053 3.36223 181.751 3.18277 181.312 3.17805C181.112 3.17805 180.966 3.19694 180.903 3.21583V4.35394V4.35866Z" fill="white"/>
<path d="M10.9082 77.1794L0 37.3457H5.58084L11.8343 63.456C12.5069 66.1903 13.087 68.9105 13.5744 71.607C14.6223 67.3521 15.2364 64.8964 15.4265 64.2447L23.2495 37.3457H29.81L35.6979 57.5058C37.1748 62.5068 38.2422 67.2057 38.8953 71.607C39.4168 69.0899 40.0992 66.1998 40.9424 62.9413L47.3909 37.3457H52.8596L41.5858 77.1794H36.3413L27.6751 46.8284C26.944 44.2924 26.5151 42.734 26.3835 42.1531C25.9546 43.9854 25.55 45.5391 25.1796 46.8284L16.4598 77.1794H10.9082Z" fill="white"/>
<path d="M56.7297 88.134L56.1691 83.5437C57.2707 83.8318 58.2357 83.9782 59.0595 83.9782C60.1805 83.9782 61.0774 83.7988 61.75 83.4351C62.4226 83.0715 62.9734 82.5662 63.4023 81.9145C63.7191 81.4234 64.2358 80.2097 64.9425 78.2735C65.0351 77.9996 65.1862 77.6029 65.3909 77.0787L54.0879 48.168H59.5274L65.7272 64.876C66.5315 66.9963 67.2528 69.2206 67.8865 71.5582C68.4665 69.3103 69.1586 67.1191 69.9628 64.9846L76.3284 48.168H81.378L70.0506 77.5132C68.8369 80.6819 67.8913 82.8684 67.2187 84.0632C66.3219 85.6736 65.2934 86.8589 64.1334 87.6098C62.9734 88.3606 61.5891 88.7384 59.9807 88.7384C59.0107 88.7384 57.9238 88.5401 56.7297 88.1387V88.134Z" fill="white"/>
<path d="M87.5684 77.1796V48.3255H92.111V52.4293C94.2995 49.2606 97.4579 47.6738 101.591 47.6738C103.385 47.6738 105.037 47.9855 106.543 48.6136C108.049 49.237 109.175 50.0587 109.921 51.074C110.667 52.0893 111.193 53.2935 111.49 54.6866C111.676 55.5934 111.773 57.1754 111.773 59.4421V77.1843H106.724V59.631C106.724 57.6382 106.529 56.1506 106.134 55.1636C105.739 54.1766 105.047 53.388 104.043 52.7977C103.044 52.2074 101.869 51.9146 100.524 51.9146C98.3742 51.9146 96.5172 52.5757 94.9575 53.898C93.3978 55.2203 92.6179 57.7279 92.6179 61.4256V77.1843H87.5684V77.1796Z" fill="white"/>
<path d="M166.689 77.1796V48.3255H171.232V52.4293C173.421 49.2606 176.579 47.6738 180.712 47.6738C182.506 47.6738 184.158 47.9855 185.664 48.6136C187.17 49.237 188.296 50.0587 189.042 51.074C189.788 52.0893 190.314 53.2935 190.611 54.6866C190.797 55.5934 190.894 57.1754 190.894 59.4421V77.1843H185.845V59.631C185.845 57.6382 185.65 56.1506 185.255 55.1636C184.86 54.1766 184.163 53.388 183.164 52.7977C182.165 52.2074 180.99 51.9146 179.645 51.9146C177.495 51.9146 175.638 52.5757 174.079 53.898C172.519 55.2203 171.739 57.7279 171.739 61.4256V77.1843H166.689V77.1796Z" fill="white"/>
<path d="M194.876 68.5648L199.365 67.8044C199.618 69.7406 200.32 71.2282 201.471 72.2624C202.621 73.2966 204.229 73.8114 206.296 73.8114C208.363 73.8114 209.927 73.3533 210.936 72.4371C211.945 71.521 212.447 70.449 212.447 69.2165C212.447 68.1114 212.004 67.2425 211.112 66.6097C210.488 66.1752 208.943 65.6227 206.471 64.9521C203.142 64.0454 200.837 63.2615 199.55 62.6003C198.263 61.9392 197.289 61.023 196.626 59.8566C195.963 58.6901 195.631 57.3962 195.631 55.9842C195.631 54.6997 195.904 53.5096 196.45 52.4093C196.996 51.3137 197.742 50.4023 198.683 49.6797C199.389 49.1178 200.35 48.6408 201.568 48.2535C202.787 47.8663 204.093 47.668 205.487 47.668C207.588 47.668 209.435 47.9938 211.019 48.6455C212.608 49.2972 213.778 50.1803 214.538 51.2948C215.294 52.4093 215.815 53.9016 216.103 55.7669L211.667 56.4186C211.467 54.9311 210.883 53.7741 209.917 52.9429C208.952 52.1118 207.588 51.6915 205.823 51.6915C203.737 51.6915 202.25 52.0646 201.359 52.806C200.467 53.5474 200.023 54.4163 200.023 55.4128C200.023 56.0456 200.208 56.617 200.579 57.1223C200.949 57.6465 201.529 58.0809 202.319 58.4257C202.772 58.6051 204.108 59.0207 206.325 59.6771C209.532 60.6027 211.774 61.3583 213.042 61.9439C214.309 62.5342 215.308 63.389 216.03 64.5129C216.751 65.6368 217.112 67.03 217.112 68.697C217.112 70.364 216.673 71.861 215.786 73.3014C214.904 74.7417 213.632 75.8562 211.965 76.6448C210.303 77.4335 208.421 77.8255 206.32 77.8255C202.84 77.8255 200.189 77.0463 198.366 75.4878C196.543 73.9294 195.378 71.6202 194.876 68.56V68.5648Z" fill="white"/>
<path d="M222.581 62.7526C222.581 57.4068 224.116 53.4494 227.182 50.8804C229.741 48.7411 232.865 47.6738 236.55 47.6738C240.644 47.6738 243.993 48.9725 246.591 51.5746C249.189 54.1719 250.49 57.7657 250.49 62.3464C250.49 66.0583 249.915 68.9815 248.765 71.1113C247.614 73.2411 245.943 74.894 243.744 76.0698C241.546 77.2457 239.148 77.836 236.55 77.836C232.383 77.836 229.01 76.5421 226.441 73.9495C223.873 71.3616 222.586 67.6261 222.586 62.7573L222.581 62.7526ZM227.767 62.7526C227.767 66.4455 228.601 69.2129 230.263 71.0546C231.925 72.8916 234.021 73.8125 236.545 73.8125C239.07 73.8125 241.137 72.8869 242.799 71.0404C244.461 69.194 245.294 66.3747 245.294 62.592C245.294 59.0218 244.456 56.3206 242.784 54.4836C241.112 52.6466 239.031 51.7257 236.545 51.7257C234.06 51.7257 231.93 52.6418 230.263 54.4694C228.601 56.297 227.767 59.0596 227.767 62.7573V62.7526Z" fill="white"/>
<path d="M258.922 77.179V52.1265H254.462V48.3249H258.922V45.2553C258.922 43.3191 259.097 41.8788 259.453 40.9343C259.94 39.6687 260.793 38.6392 262.017 37.8505C263.24 37.0619 264.956 36.6699 267.164 36.6699C268.582 36.6699 270.157 36.8352 271.877 37.1611L271.122 41.4254C270.074 41.246 269.084 41.1562 268.148 41.1562C266.618 41.1562 265.531 41.4726 264.897 42.1054C264.264 42.7383 263.942 43.9236 263.942 45.6662V48.3296H269.747V52.1312H263.942V77.1837H258.922V77.179Z" fill="white"/>
<path d="M288.269 72.8049L289 77.1259C287.577 77.414 286.31 77.5604 285.184 77.5604C283.351 77.5604 281.933 77.2818 280.924 76.7198C279.915 76.1578 279.203 75.4211 278.794 74.505C278.385 73.5888 278.18 71.6668 278.18 68.7294V52.1301H274.476V48.3285H278.18V41.1834L283.2 38.2461V48.3285H288.274V52.1301H283.2V69.0033C283.2 70.3964 283.288 71.2937 283.468 71.6904C283.644 72.0871 283.936 72.4082 284.336 72.6396C284.736 72.8757 285.311 72.9938 286.061 72.9938C286.622 72.9938 287.363 72.9324 288.279 72.8049H288.269Z" fill="white"/>
<path d="M6.39844 97.9998V88.9837H10.5704C11.4571 88.9837 12.1058 89.1937 12.5164 89.6137C12.9364 90.0244 13.1464 90.6078 13.1464 91.3637C13.1464 91.8584 13.0438 92.2738 12.8384 92.6098C12.6424 92.9364 12.3671 93.1837 12.0124 93.3517C12.4698 93.4637 12.8291 93.6831 13.0904 94.0097C13.3611 94.3271 13.4964 94.7984 13.4964 95.4238C13.4964 96.3011 13.2678 96.9498 12.8104 97.3698C12.3531 97.7898 11.6811 97.9998 10.7944 97.9998H6.39844ZM7.54644 92.9318H10.5004C11.0698 92.9318 11.4711 92.7964 11.7044 92.5257C11.9471 92.2457 12.0684 91.8864 12.0684 91.4478C12.0684 90.9251 11.9471 90.5331 11.7044 90.2717C11.4618 90.0011 10.9904 89.8658 10.2904 89.8658H7.54644V92.9318ZM7.54644 97.1318H10.5984C11.2051 97.1318 11.6484 97.0011 11.9284 96.7398C12.2084 96.4691 12.3484 96.0164 12.3484 95.3818C12.3484 94.8591 12.2084 94.4671 11.9284 94.2057C11.6578 93.9351 11.1538 93.7998 10.4164 93.7998H7.54644V97.1318Z" fill="white"/>
<path d="M36.8036 97.9998L40.2336 88.9837H41.5776L44.9936 97.9998H43.8176L42.8656 95.5218H38.9456L37.9936 97.9998H36.8036ZM39.1416 94.6118H42.6556L40.8916 89.9778L39.1416 94.6118Z" fill="white"/>
<path d="M72.3479 98.1398C71.3773 98.1398 70.57 97.9578 69.926 97.5938C69.2913 97.2204 68.8153 96.7024 68.498 96.0398C68.1806 95.3678 68.022 94.5838 68.022 93.6878C68.022 92.7078 68.1713 91.8538 68.47 91.1258C68.7686 90.3978 69.2353 89.8378 69.87 89.4458C70.5046 89.0444 71.3259 88.8438 72.3339 88.8438C72.8566 88.8438 73.3279 88.8811 73.7479 88.9557C74.1773 89.0304 74.5786 89.1331 74.952 89.2638V90.2717C74.5786 90.1318 74.1819 90.0244 73.7619 89.9497C73.3419 89.8657 72.8986 89.8238 72.4319 89.8238C71.6199 89.8238 70.9759 89.9778 70.4999 90.2858C70.0239 90.5938 69.6833 91.0371 69.478 91.6157C69.2726 92.1944 69.17 92.8851 69.17 93.6878C69.17 94.7984 69.4313 95.6571 69.954 96.2638C70.486 96.8611 71.3213 97.1597 72.4599 97.1597C72.8799 97.1597 73.3046 97.1271 73.7339 97.0618C74.1726 96.9964 74.5786 96.8938 74.952 96.7538V97.7758C74.588 97.8878 74.1913 97.9764 73.7619 98.0417C73.3419 98.1071 72.8706 98.1398 72.3479 98.1398Z" fill="white"/>
<path d="M99.0281 97.9998V88.9837H100.176V93.4498L104.39 88.9837H105.734L102.374 92.5958L105.846 97.9998H104.614L101.646 93.3378L100.176 94.8918V97.9998H99.0281Z" fill="white"/>
<path d="M132.894 98.1398C131.485 98.1398 130.439 97.7711 129.758 97.0338C129.077 96.2871 128.736 95.1064 128.736 93.4918C128.736 91.8771 129.077 90.7011 129.758 89.9638C130.439 89.2171 131.485 88.8438 132.894 88.8438C134.313 88.8438 135.358 89.2171 136.03 89.9638C136.711 90.7011 137.052 91.8771 137.052 93.4918C137.052 95.1064 136.711 96.2871 136.03 97.0338C135.358 97.7711 134.313 98.1398 132.894 98.1398ZM132.894 97.1597C133.575 97.1597 134.135 97.0431 134.574 96.8098C135.022 96.5764 135.353 96.1938 135.568 95.6618C135.792 95.1204 135.904 94.3971 135.904 93.4918C135.904 92.5864 135.792 91.8677 135.568 91.3358C135.353 90.7944 135.022 90.4071 134.574 90.1738C134.135 89.9404 133.575 89.8238 132.894 89.8238C132.213 89.8238 131.648 89.9404 131.2 90.1738C130.761 90.4071 130.43 90.7944 130.206 91.3358C129.991 91.8677 129.884 92.5864 129.884 93.4918C129.884 94.3971 129.991 95.1204 130.206 95.6618C130.43 96.1938 130.761 96.5764 131.2 96.8098C131.648 97.0431 132.213 97.1597 132.894 97.1597Z" fill="white"/>
<path d="M161.137 97.9998V88.9837H167.045V89.8937H162.285V93.0438H166.527V93.9398H162.285V97.9998H161.137Z" fill="white"/>
<path d="M190.851 97.9998V88.9837H196.759V89.8937H191.999V93.0438H196.241V93.9398H191.999V97.9998H190.851Z" fill="white"/>
<path d="M220.566 97.9998V88.9837H221.714V97.9998H220.566Z" fill="white"/>
<path d="M250.115 98.1398C249.144 98.1398 248.337 97.9578 247.693 97.5938C247.058 97.2204 246.582 96.7024 246.265 96.0398C245.948 95.3678 245.789 94.5838 245.789 93.6878C245.789 92.7078 245.938 91.8538 246.237 91.1258C246.536 90.3978 247.002 89.8378 247.637 89.4458C248.272 89.0444 249.093 88.8438 250.101 88.8438C250.624 88.8438 251.095 88.8811 251.515 88.9557C251.944 89.0304 252.346 89.1331 252.719 89.2638V90.2717C252.346 90.1318 251.949 90.0244 251.529 89.9497C251.109 89.8657 250.666 89.8238 250.199 89.8238C249.387 89.8238 248.743 89.9778 248.267 90.2858C247.791 90.5938 247.45 91.0371 247.245 91.6157C247.04 92.1944 246.937 92.8851 246.937 93.6878C246.937 94.7984 247.198 95.6571 247.721 96.2638C248.253 96.8611 249.088 97.1597 250.227 97.1597C250.647 97.1597 251.072 97.1271 251.501 97.0618C251.94 96.9964 252.346 96.8938 252.719 96.7538V97.7758C252.355 97.8878 251.958 97.9764 251.529 98.0417C251.109 98.1071 250.638 98.1398 250.115 98.1398Z" fill="white"/>
<path d="M276.795 97.9998V88.9837H282.885V89.8937H277.943V93.0438H282.381V93.9398H277.943V97.1038H282.885V97.9998H276.795Z" fill="white"/>
</g>
<defs>
<clipPath id="clip0_593_104">
<rect width="289" height="98" fill="white"/>
</clipPath>
</defs>
</svg>
