<svg width="25" height="27" viewBox="0 0 25 27" fill="none" xmlns="http://www.w3.org/2000/svg">
<path d="M13.1413 0.697742L13.1412 0.697734C12.9563 0.558987 12.7312 0.483984 12.5 0.483984C12.2688 0.483984 12.0437 0.558987 11.8588 0.697734L11.8587 0.697742C8.58935 3.15043 5.25804 4.35898 1.84375 4.35898C1.5603 4.35898 1.28846 4.47158 1.08803 4.67201C0.8876 4.87244 0.775 5.14428 0.775 5.42773V12.209C0.775 15.46 1.73703 18.284 3.63838 20.6638C5.53861 23.0423 8.3725 24.9715 12.1081 26.4432C12.3599 26.5424 12.64 26.5424 12.8919 26.4432C16.6275 24.9715 19.4614 23.0419 21.3616 20.6634C23.263 18.2834 24.225 15.4594 24.225 12.209V5.42773C24.225 5.14428 24.1124 4.87244 23.912 4.67201C23.7115 4.47158 23.4397 4.35898 23.1562 4.35898C19.742 4.35898 16.4107 3.15043 13.1413 0.697742ZM14.7205 13.706C15.018 13.2634 15.1769 12.7423 15.1769 12.209C15.1769 11.7218 15.0443 11.2438 14.7933 10.8263C14.5422 10.4088 14.1823 10.0675 13.752 9.83897C13.3217 9.61049 12.8374 9.50346 12.3509 9.52936C11.8644 9.55526 11.3941 9.71312 10.9906 9.986C10.587 10.2589 10.2653 10.6365 10.06 11.0783C9.85475 11.5201 9.77364 12.0095 9.82539 12.4939C9.87713 12.9783 10.0598 13.4395 10.3537 13.828C10.634 14.1984 11.0054 14.4894 11.4312 14.673V17.6986C11.4312 17.982 11.5438 18.2539 11.7443 18.4543C11.9447 18.6547 12.2165 18.7673 12.5 18.7673C12.7835 18.7673 13.0553 18.6547 13.2557 18.4543C13.4561 18.2539 13.5687 17.982 13.5687 17.6986V14.6675C14.0358 14.4632 14.4355 14.1298 14.7205 13.706ZM2.9125 12.209V6.46207C6.20876 6.2487 9.40862 5.04513 12.5 2.87372C15.5914 5.04513 18.7912 6.2487 22.0875 6.46207V12.209C22.0875 14.9369 21.3019 17.2974 19.71 19.3071C18.123 21.3106 15.7299 22.9713 12.5 24.2968C9.27009 22.9713 6.87698 21.3106 5.29 19.3071C3.69805 17.2974 2.9125 14.9369 2.9125 12.209Z" fill="#747171" stroke="#747171" stroke-width="0.2"/>
</svg>
