<svg width="23" height="21" viewBox="0 0 23 21" fill="none" xmlns="http://www.w3.org/2000/svg">
<path d="M5.87952 0C4.62765 0 3.31842 0.802375 2.15741 2.29688C0.996404 3.79137 0.0982975 6.04362 0.145056 9.02387C0.145056 10.4466 0.602931 12.0251 1.46839 13.3438C1.59543 13.538 1.81511 13.6544 1.96421 13.8364C1.35723 14.5635 0.310032 15.9416 0.310032 15.9416C0.216078 16.021 0.13997 16.1191 0.0866277 16.2295C0.0332858 16.3399 0.00389722 16.4602 0.000361932 16.5826C-0.00317335 16.7049 0.0192233 16.8267 0.0661041 16.9399C0.112985 17.0532 0.183306 17.1554 0.272522 17.24C0.361738 17.3247 0.467863 17.3898 0.584036 17.4311C0.700208 17.4725 0.823844 17.4893 0.946949 17.4803C1.07005 17.4713 1.18989 17.4368 1.29871 17.379C1.40752 17.3212 1.5029 17.2414 1.57867 17.1447C1.57867 17.1447 2.63999 15.736 3.20462 15.0666C3.8557 15.477 4.6003 15.75 5.43841 15.75C6.94525 15.75 8.36034 15.0351 9.5734 14.0543C9.74544 13.916 9.84954 13.7121 10.0145 13.5625C10.4036 13.8329 10.8615 14 11.3652 14C12.2113 14 12.9294 13.6001 13.5443 13.125C14.1583 12.6499 14.685 12.0776 15.1702 11.5115C15.4958 11.1318 15.734 10.8167 15.9978 10.5C15.9651 10.9121 15.9387 11.3181 15.9422 11.7031C15.944 11.9044 15.9528 12.0855 16.0251 12.3322C16.0604 12.4547 16.0922 12.6245 16.2457 12.7969C16.3992 12.9692 16.7115 13.125 16.9894 13.125C17.7102 13.125 18.2466 12.7242 18.6436 12.3322C19.0406 11.9394 19.3591 11.4879 19.7199 11.074C20.438 10.2471 21.1297 9.625 22.1178 9.625C22.3518 9.625 22.5762 9.53281 22.7416 9.36872C22.9071 9.20462 23 8.98206 23 8.75C23 8.51794 22.9071 8.29538 22.7416 8.13128C22.5762 7.96719 22.3518 7.875 22.1178 7.875C20.371 7.875 19.1976 9.00375 18.3957 9.926C18.1469 10.2121 17.9598 10.4073 17.7622 10.6365C17.764 10.605 17.7596 10.5866 17.7622 10.5543C17.7957 10.1098 17.8504 9.67663 17.8169 9.24175C17.808 8.99657 17.7517 8.75537 17.6511 8.53125C17.5276 8.2635 17.1147 7.875 16.6586 7.875C16.1813 7.875 15.9122 8.08325 15.6943 8.25825C15.4764 8.43325 15.2858 8.63625 15.0873 8.85938C14.6903 9.30562 14.2713 9.83587 13.8196 10.3635C13.367 10.8911 12.8879 11.4126 12.4406 11.7582C11.9942 12.103 11.6228 12.25 11.3652 12.25C11.307 12.25 11.277 12.1511 11.2276 12.1406C11.6925 11.5867 12.2642 11.1108 12.6338 10.5271C13.4393 9.25313 13.9995 7.99225 14.1777 6.89062C14.2668 6.33938 14.2986 5.80388 14.0401 5.27713C13.7807 4.75125 13.105 4.375 12.4962 4.375C11.3096 4.375 10.3118 5.13625 9.62898 6.15213C8.94526 7.16888 8.5262 8.50238 8.5262 9.98025C8.5262 10.7476 8.76881 11.3925 9.02201 12.0312C8.81204 12.2325 8.6603 12.5125 8.44327 12.6875C7.42342 13.5117 6.35681 14 5.43841 14C5.03876 14 4.68234 13.8267 4.33563 13.6447C4.74763 13.1005 4.77939 13.1723 5.21785 12.523C7.02465 9.84638 8.88439 6.42512 8.88439 3.14562C8.88439 2.75625 8.85792 2.05188 8.44327 1.3405C8.02863 0.62825 7.10405 0 5.87952 0ZM5.87952 1.75C6.59589 1.75 6.74058 1.9425 6.89938 2.21462C7.05818 2.48762 7.11993 2.92162 7.11993 3.14475C7.11993 5.72775 5.45076 9.01512 3.72866 11.5666C3.37665 12.0881 3.37665 12.0164 3.03964 12.4688C3.01582 12.4338 2.98053 12.4224 2.95671 12.3865C2.30033 11.3864 1.90951 10.0503 1.90951 9.023C1.90964 9.01425 1.90964 9.0055 1.90951 8.99675C1.86804 6.37612 2.65058 4.56488 3.56368 3.39062C4.4759 2.21637 5.63074 1.75 5.87952 1.75ZM12.4406 6.15213C12.453 6.21688 12.4865 6.33238 12.4406 6.61675C12.3268 7.32025 11.861 8.46562 11.1446 9.59787C10.9479 9.9085 10.6303 10.1404 10.4009 10.4457C10.3798 10.2637 10.2907 10.1798 10.2907 9.98025C10.2907 8.834 10.6259 7.79887 11.09 7.10938C11.5328 6.44962 12.0454 6.1775 12.4406 6.15213V6.15213ZM0.0621263 19.25V21H23V19.25H0.0621263Z" fill="#747171"/>
</svg>
