<svg width="25" height="27" viewBox="0 0 25 27" fill="none" xmlns="http://www.w3.org/2000/svg">
<path d="M22.75 25.4577V23.3223C22.75 19.7843 19.4717 16.916 15.4281 16.916H9.57192C5.52829 16.916 2.25 19.7843 2.25 23.3223V25.4577M17.625 6.66602C17.625 8.02525 17.085 9.32881 16.1239 10.2899C15.1628 11.2511 13.8592 11.791 12.5 11.791C11.1408 11.791 9.8372 11.2511 8.87608 10.2899C7.91495 9.32881 7.375 8.02525 7.375 6.66602C7.375 5.30678 7.91495 4.00322 8.87608 3.04209C9.8372 2.08097 11.1408 1.54102 12.5 1.54102C13.8592 1.54102 15.1628 2.08097 16.1239 3.04209C17.085 4.00322 17.625 5.30678 17.625 6.66602V6.66602Z" stroke="#747171" stroke-width="3" stroke-linecap="round" stroke-linejoin="round"/>
</svg>
