<?xml version="1.0" encoding="UTF-8"?><svg id="Layer_1" xmlns="http://www.w3.org/2000/svg" viewBox="0 0 400 400"><defs><style>.cls-1{fill:none;stroke:#000;stroke-linecap:round;stroke-linejoin:round;stroke-width:16px;}</style></defs><circle class="cls-1" cx="157.92" cy="122.91" r="60.42"/><path class="cls-1" d="m311.67,196.18h0c14.17-3.99,27.27,9.02,23.4,23.22h0c-2.29,8.38,1.42,17.25,9,21.5h0c12.84,7.2,12.91,25.66.12,32.96h0c-7.55,4.31-11.19,13.2-8.84,21.57h0c3.99,14.17-9.02,27.27-23.22,23.4h0c-8.38-2.29-17.25,1.42-21.5,9h0c-7.2,12.84-25.66,12.91-32.96.13h0c-4.31-7.55-13.2-11.19-21.57-8.84h0c-14.17,3.99-27.27-9.02-23.4-23.22h0c2.29-8.38-1.42-17.25-9-21.5h0c-12.84-7.2-12.91-25.66-.12-32.96h0c7.55-4.31,11.19-13.2,8.84-21.57h0c-3.99-14.17,9.02-27.27,23.22-23.4h0c8.38,2.29,17.25-1.42,21.5-9h0c7.2-12.84,25.66-12.91,32.96-.13h0c4.31,7.55,13.2,11.19,21.57,8.84Z"/><path class="cls-1" d="m245.86,253.73l16.09,15.46c2.36,2.27,6.09,2.27,8.45,0l31.39-30.23"/><path class="cls-1" d="m46.59,303.68c-.22-2.87-.33-5.76-.33-8.69,0-61.67,49.99-111.66,111.66-111.66"/></svg>