<?xml version="1.0" encoding="UTF-8"?><svg id="Layer_1" xmlns="http://www.w3.org/2000/svg" viewBox="0 0 400 400"><defs><style>.cls-1{fill:none;stroke:#000;stroke-linecap:round;stroke-linejoin:round;stroke-width:16px;}</style></defs><path class="cls-1" d="m296.51,347.58H103.49c-11.85,0-21.46-9.61-21.46-21.46V73.89c0-6.11,2.55-11.62,6.65-15.53,3.85-3.67,9.07-5.93,14.81-5.93h193.02c11.85,0,21.46,9.61,21.46,21.46v252.23c0,11.85-9.61,21.46-21.46,21.46Z"/><circle class="cls-1" cx="198.92" cy="232.44" r="16.72"/><line class="cls-1" x1="85.62" y1="117.91" x2="312.29" y2="117.91"/><line class="cls-1" x1="258.31" y1="84.27" x2="288.37" y2="84.27"/><line class="cls-1" x1="196.86" y1="84.27" x2="226.91" y2="84.27"/><path class="cls-1" d="m185.03,223.43s-16.68-24.86-16.68-44.68,15.34-27.06,33.51-25.17c19.2,1.99,32.46,14.5,31.62,26.12-1.42,19.67-29.26,7.24-29.26,36.19"/><path class="cls-1" d="m216.26,224.7s29.91,1.16,45.93,12.84c16.02,11.68,12.83,28.34.6,41.91-12.92,14.34-30.84,17.69-39.73,10.17-15.06-12.73,11.39-27.91-12.01-44.96"/><path class="cls-1" d="m198.85,249.98s-15.29,25.73-33.2,34.24c-17.91,8.51-31.03-2.24-37.12-19.46-6.44-18.2-.83-35.54,10.02-39.77,18.37-7.16,19.1,23.33,45.24,10.9"/></svg>