<?xml version="1.0" encoding="UTF-8"?><svg id="Layer_1" xmlns="http://www.w3.org/2000/svg" viewBox="0 0 400 400"><defs><style>.cls-1{fill:none;stroke:#000;stroke-linecap:round;stroke-linejoin:round;stroke-width:16px;}</style></defs><path class="cls-1" d="m298.65,350.24H101.35c-10.7,0-20.31-4.64-26.93-12.02-5.75-6.41-9.25-14.88-9.25-24.17V119.93c0-19.99,16.2-36.19,36.19-36.19h197.29c19.99,0,36.19,16.2,36.19,36.19v194.12c0,19.99-16.2,36.19-36.19,36.19Z"/><line class="cls-1" x1="67.68" y1="173.42" x2="333.26" y2="173.42"/><line class="cls-1" x1="140.53" y1="115.21" x2="140.53" y2="49.76"/><line class="cls-1" x1="261.67" y1="115.21" x2="261.67" y2="49.76"/><g><circle cx="141.63" cy="231.63" r="10.7"/><circle cx="201.26" cy="231.63" r="10.7"/><circle cx="260.89" cy="231.63" r="10.7"/></g><g><circle cx="141.63" cy="293.31" r="10.7"/><circle cx="201.26" cy="293.31" r="10.7"/><circle cx="260.89" cy="293.31" r="10.7"/></g></svg>