<?xml version="1.0" encoding="UTF-8"?><svg id="Layer_1" xmlns="http://www.w3.org/2000/svg" viewBox="0 0 400 400"><defs><style>.cls-1{fill:none;stroke:#000;stroke-linecap:round;stroke-linejoin:round;stroke-width:16px;}</style></defs><path class="cls-1" d="m304.47,270.72V93.57c0-17.55-14.23-31.78-31.78-31.78H92.7c-6.85,0-13.19,2.17-18.38,5.85-8.11,5.76-13.4,15.23-13.4,25.93v33.04h49.09"/><path class="cls-1" d="m111.27,62.41v246.22c0,16.25,13.17,29.42,29.42,29.42h168.97c7.81,0,14.9-3.04,20.17-8,5.7-5.37,9.25-12.98,9.25-21.42v-37.92h-164.88l-.13,38.15c-.06,16.13-13.08,29.2-29.21,29.32l-3.23.02"/><line class="cls-1" x1="172.78" y1="141.39" x2="243.58" y2="141.39"/><line class="cls-1" x1="172.78" y1="207.47" x2="210.54" y2="207.47"/></svg>