<?xml version="1.0" encoding="UTF-8"?><svg id="Layer_1" xmlns="http://www.w3.org/2000/svg" viewBox="0 0 400 400"><defs><style>.cls-1{fill:none;stroke:#000;stroke-linecap:round;stroke-linejoin:round;stroke-width:16px;}</style></defs><g><path class="cls-1" d="m259.79,68.94H79.8c-8.78,0-16.72,3.56-22.47,9.31-5.75,5.75-9.31,13.7-9.31,22.47v33.04h49.09"/><line class="cls-1" x1="291.57" y1="277.88" x2="291.57" y2="182.22"/><path class="cls-1" d="m98.36,69.57v246.22c0,16.25,13.17,29.42,29.42,29.42h168.97c7.89,0,15.05-3.1,20.33-8.16,5.6-5.36,9.09-12.9,9.09-21.26v-37.92h-164.88l-.13,38.15c-.06,16.13-13.08,29.2-29.21,29.32l-3.23.02"/><line class="cls-1" x1="159.88" y1="148.55" x2="182.69" y2="148.55"/><line class="cls-1" x1="159.88" y1="214.63" x2="197.64" y2="214.63"/></g><path d="m279.77,54.63c-39.88,0-72.21,32.33-72.21,72.21s32.33,72.21,72.21,72.21,72.21-32.33,72.21-72.21-32.33-72.21-72.21-72.21Zm-3.49,106.18c-1.8,1.76-4.22,2.74-6.74,2.74h-.12c-2.56-.03-5-1.08-6.79-2.92l-22.65-23.29,13.83-13.46,15.92,16.36,45.95-44.86,13.48,13.81-52.87,51.6Z"/></svg>