<?xml version="1.0" encoding="UTF-8"?><svg id="Layer_1" xmlns="http://www.w3.org/2000/svg" viewBox="0 0 400 400"><defs><style>.cls-1{fill:none;stroke:#000;stroke-linecap:round;stroke-linejoin:round;stroke-width:16px;}</style></defs><path class="cls-1" d="m276.31,212.9h58.21v91.72c0,15.04-12.19,27.23-27.23,27.23H92.71c-7.99,0-15.17-3.44-20.15-8.92-4.39-4.84-7.07-11.26-7.07-18.31V68.16l52.57,28.95,52.62-28.95,52.66,28.95,52.66-28.95-.28,236.15c-.02,15.16,12.35,27.41,27.5,27.26l3.3-.03"/><path class="cls-1" d="m200.47,162.87h-40.28c-12.43,0-22.5,10.07-22.5,22.5h0c0,12.43,10.07,22.5,22.5,22.5h14.95c12.43,0,22.5,10.07,22.5,22.5v.16c0,12.43-10.07,22.5-22.5,22.5h-38.86"/><line class="cls-1" x1="169.54" y1="162.87" x2="169.54" y2="138.96"/><line class="cls-1" x1="169.54" y1="277.72" x2="169.54" y2="253.81"/></svg>