<?xml version="1.0" encoding="UTF-8"?><svg id="Layer_1" xmlns="http://www.w3.org/2000/svg" viewBox="0 0 400 400"><defs><style>.cls-1{fill:none;stroke:#000;stroke-linecap:round;stroke-linejoin:round;stroke-width:16px;}</style></defs><path class="cls-1" d="m121.96,151.87v-22.25c0-3.51-1.39-6.87-3.87-9.35l-21.55-21.55c-2.48-2.48-3.87-5.85-3.87-9.35v-16.49"/><path class="cls-1" d="m171.67,151.87v-22.25c0-3.51-1.39-6.87-3.87-9.35l-21.55-21.55c-2.48-2.48-3.87-5.85-3.87-9.35v-16.49"/><path class="cls-1" d="m76.47,188.04c-.46,4.34-.72,8.75-.72,13.22,0,47.17,26.35,88.18,65.14,109.14v16.73h117.68v-16.73c38.78-20.95,65.14-61.96,65.14-109.14,0-4.47-.26-8.87-.72-13.22H76.47"/><line class="cls-1" x1="322.52" y1="204.72" x2="357.45" y2="204.72"/><g><line class="cls-1" x1="326.22" y1="204.72" x2="356.9" y2="204.72"/><line class="cls-1" x1="42.55" y1="204.72" x2="73.23" y2="204.72"/></g><path class="cls-1" d="m213.49,185.84c0-26.24,21.27-47.51,47.51-47.51s47.51,21.27,47.51,47.51"/></svg>