<?xml version="1.0" encoding="UTF-8"?><svg id="Layer_2" xmlns="http://www.w3.org/2000/svg" viewBox="0 0 400 400"><defs><style>.cls-1{fill:none;stroke:#000;stroke-linecap:round;stroke-linejoin:round;stroke-width:16px;}</style></defs><path class="cls-1" d="m289.73,139.62s-45.9,137.3-226.63,195.61"/><path class="cls-1" d="m120.17,253.35s-20.68,31.43-19.44,67c0,0,44.25,21.92,87.26,11.99,43.01-9.93,87.26-45.49,103.8-71.55l-31.02-4.14s57.9,3.72,73.2-94.7l-24.81,6.62s49.21-11.99,16.54-103.8c0,0-76.09,17.37-70.72,78.99l-7.86-28.54s-45.9,52.11-41.36,88.91l-8.27-16.96s-24.81,25.23-36.81,31.02"/><path class="cls-1" d="m162.35,287.67s-10.34-22.33,9.1-51.28"/><path class="cls-1" d="m239.69,219.44s-8.27-14.47,2.89-50.45"/><path class="cls-1" d="m237.62,270.3s-23.57,2.89-41.36-3.31"/></svg>