<?xml version="1.0" encoding="UTF-8"?><svg id="Layer_2" xmlns="http://www.w3.org/2000/svg" viewBox="0 0 400 400"><defs><style>.cls-1{fill:none;stroke:#000;stroke-linecap:round;stroke-linejoin:round;stroke-width:16px;}</style></defs><path class="cls-1" d="m256.55,88.71c-1.93-2.23-4.71-3.52-7.67-3.54-2.91,0-5.68,1.27-7.62,3.48-7.28,8.32-14.15,16.61-20.46,24.71-17.13-20.95-34.08-38.54-42.96-47.44-1.89-1.9-4.51-2.99-7.19-2.99h-.11c-2.71.04-5.34,1.2-7.22,3.18-32.14,34.02-86.07,98.21-86.07,145.93,0,68.93,55.06,125.02,122.72,125.02,2.11,0,4.33-.06,6.59-.18,13.82-.74,27.32-3.84,40.11-9.21,22.22-9.32,41.15-24.97,54.74-45.24,13.93-20.78,21.29-45.12,21.29-70.38,0-38.52-35.99-88.33-66.17-123.34h0Z"/><path class="cls-1" d="m259.8,261.67c4.4-9.74,6.63-20.14,6.63-30.93,0-18.33-12.75-42.42-37.9-71.58-1.93-2.24-4.71-3.52-7.67-3.54-2.91,0-5.68,1.27-7.62,3.47h0c-2.8,3.21-5.5,6.4-8.06,9.58-8.43-9.96-16.37-18.16-20.6-22.41-1.92-1.93-4.46-2.98-7.15-2.98h-.15c-2.7.04-5.33,1.2-7.22,3.18-10.53,11.13-29.8,33.01-40.62,54.41"/></svg>