<?xml version="1.0" encoding="UTF-8"?><svg id="Layer_2" xmlns="http://www.w3.org/2000/svg" viewBox="0 0 400 400"><defs><style>.cls-1{fill:none;stroke:#000;stroke-linecap:round;stroke-miterlimit:10;stroke-width:16px;}</style></defs><path class="cls-1" d="m275.04,113.85c-8.82-33.19-39.07-57.66-75.04-57.66s-66.22,24.46-75.04,57.66c-31.33,4.45-55.43,31.37-55.43,63.92v3.66c0,35.34,28.38,64.03,63.59,64.56,13.52,22.86,38.4,38.2,66.88,38.2s53.36-15.34,66.88-38.2c35.21-.53,63.59-29.22,63.59-64.56v-3.66c0-32.56-24.1-59.48-55.43-63.92Z"/><line class="cls-1" x1="200" y1="180.13" x2="200" y2="343.81"/><path class="cls-1" d="m238.17,208.37c0,21.08-17.09,38.17-38.17,38.17s-38.17-17.09-38.17-38.17"/></svg>