<?xml version="1.0" encoding="UTF-8"?><svg id="Layer_1" xmlns="http://www.w3.org/2000/svg" viewBox="0 0 400 400"><defs><style>.cls-1{fill:none;stroke:#000;stroke-linecap:round;stroke-linejoin:round;stroke-width:16px;}</style></defs><path class="cls-1" d="m49.64,252.66c4.17-3.15,9.59-10.54,8.6-27.49-1.57-27-9.85-80.93,50.41-121.89,60.26-40.96,135.65-13.04,148.43.52,0,0,20.87-16.76,46.7-22.83,0,0,10.17,25.63,4.3,59.48,0,0,13.11,15.26,18.59,24.65,5.48,9.39,14.67,18.29,23.67,22.6,0,0-31.89,34.73-40.3,69.75,0,0,15.55-14.18,33.55,4.4,0,0-.1,9.68-15.85,13.79,0,0,8.9,4.5,9.2,17.71,0,0-14.67,12.23-33.55-7.14,0,0-29.35,42.2-128.48,39.33-32.67,0-102.11-8.5-121.43-38.94"/><path class="cls-1" d="m82.57,160.93c19.3-24.78,59.48-32.09,101.22-32.09s88.43,17.22,109.04,62.09c3.38,6.99,5.69,16.77,7.21,26.02"/><path class="cls-1" d="m65.88,150.76s-22.96-35.48,2.09-76.43c0,0,20.35,20.35,42.52,27.91"/><path class="cls-1" d="m284.31,111.63s-12.99,9.72-12.48,24.65c0,0,7.85-4.27,16.34-2.88"/><path d="m198.13,230.84c-.75,0-1.51-.19-2.21-.58-2.16-1.22-2.93-3.95-1.71-6.11.32-.58,8.07-14.12,22.47-17.01,9.22-1.85,18.79,1.06,28.45,8.62,1.96,1.53,2.3,4.36.77,6.32-1.53,1.96-4.36,2.3-6.32.77-7.48-5.86-14.56-8.18-21.07-6.9-10.32,2.03-16.39,12.5-16.45,12.61-.83,1.46-2.35,2.28-3.92,2.28Z"/><ellipse cx="236.19" cy="264.04" rx="18.29" ry="6.52"/><ellipse cx="106.87" cy="264.04" rx="18.29" ry="6.52"/><ellipse cx="122.32" cy="216.87" rx="9.29" ry="24.15"/><path d="m152.97,279.25c-3.92,0-8.22-1.08-12.88-3.24-2.25-1.04-3.24-3.72-2.19-5.98,1.04-2.25,3.72-3.24,5.98-2.19,5.81,2.69,10.43,3.11,13.73,1.26,4.66-2.62,6.42-9.66,6.71-12.15.28-2.46,2.5-4.25,4.97-3.97,2.46.27,4.24,2.48,3.98,4.94-.06.55-1.55,13.54-11.19,18.99-2.74,1.55-5.78,2.33-9.1,2.33Z"/><path d="m185,279.25c-3.32,0-6.36-.78-9.1-2.33-9.64-5.46-11.13-18.44-11.19-18.99-.26-2.47,1.53-4.69,4-4.95,2.46-.26,4.68,1.52,4.95,3.98.29,2.5,2.05,9.53,6.7,12.15,3.31,1.86,7.93,1.43,13.73-1.26,2.25-1.04,4.93-.06,5.98,2.19,1.04,2.25.06,4.93-2.19,5.98-4.66,2.16-8.96,3.24-12.88,3.24Z"/><path d="m168.3,294.63c-12.27,0-20.39-16.26-21.28-18.11-1.07-2.24-.12-4.93,2.12-6,2.24-1.07,4.92-.12,6,2.11h0c2.04,4.24,7.95,13,13.16,13s11.21-8.65,13.28-12.85c1.1-2.23,3.8-3.14,6.02-2.05,2.23,1.1,3.15,3.79,2.05,6.02-.9,1.83-9.12,17.88-21.35,17.88Z"/></svg>