<?xml version="1.0" encoding="UTF-8"?><svg id="Layer_1" xmlns="http://www.w3.org/2000/svg" viewBox="0 0 400 400"><defs><style>.cls-1,.cls-2{stroke-miterlimit:10;}.cls-1,.cls-2,.cls-3{fill:none;stroke:#000;stroke-width:16px;}.cls-2{stroke-linecap:round;}.cls-3{stroke-linejoin:round;}</style></defs><path class="cls-1" d="m268.08,354.17h-135.88c-5.99,0-11.21-4.07-12.68-9.88l-26.84-106.5c-2.08-8.26,4.16-16.27,12.68-16.27h189.57c8.52,0,14.76,8.01,12.68,16.27l-26.84,106.5c-1.46,5.81-6.69,9.88-12.68,9.88Z"/><path class="cls-3" d="m296.95,221.52c0-.22.02-.43.02-.64,0-31.57-25.59-57.17-57.17-57.17-25.1,0-46.4,16.18-54.09,38.68-6.96-10.28-18.73-17.03-32.07-17.03-20.49,0-37.26,15.93-38.61,36.08h180.44c.51,0,1.01.03,1.5.09Z"/><line class="cls-2" x1="96.35" y1="255.66" x2="46.12" y2="235.95"/><line class="cls-2" x1="303.65" y1="255.66" x2="353.88" y2="235.95"/><line class="cls-2" x1="112.03" y1="109.22" x2="311.86" y2="45.83"/><line class="cls-2" x1="112.03" y1="109.22" x2="322.7" y2="99.37"/><line class="cls-1" x1="150.46" y1="105.89" x2="150.46" y2="186"/><line class="cls-1" x1="182.87" y1="105.89" x2="182.87" y2="196.67"/><line class="cls-2" x1="126.04" y1="256.77" x2="278.81" y2="256.77"/></svg>