<?xml version="1.0" encoding="UTF-8"?><svg id="Layer_2" xmlns="http://www.w3.org/2000/svg" viewBox="0 0 400 400"><defs><style>.cls-1{stroke-miterlimit:10;}.cls-1,.cls-2{fill:none;stroke:#000;stroke-linecap:round;stroke-width:16px;}.cls-2{stroke-linejoin:round;}</style></defs><path class="cls-1" d="m296.09,107.03h0c15.95,0,28.89,12.93,28.89,28.89v158.81c0,17.53-14.21,31.74-31.74,31.74H118.9c-24.26,0-43.94-19.67-43.94-43.94V117.47c0-24.26,19.67-43.94,43.94-43.94h176.95v158.75l-173.37-.67c-26.21-.1-47.52,21.12-47.52,47.33v7.22"/><path class="cls-2" d="m295.37,294.42H121.87c-8.55,0-15.47-6.93-15.47-15.47h0c0-8.55,6.93-15.47,15.47-15.47h173.68c16.29,0,29.49,13.2,29.49,29.49h0"/></svg>