<?xml version="1.0" encoding="UTF-8"?><svg id="Layer_1" xmlns="http://www.w3.org/2000/svg" viewBox="0 0 400 400"><defs><style>.cls-1{fill:none;stroke:#000;stroke-linecap:round;stroke-linejoin:round;stroke-width:16px;}</style></defs><path class="cls-1" d="m349.62,294.57c-99.75-60.53-199.5,60.53-299.24,0V105.43c99.75,60.53,199.5-60.53,299.24,0v189.14Z"/><path d="m202.52,172.32l-20.67,10.4v-13.99l23.87-12.7h11.81v89.84h-15.01v-73.55Z"/><circle cx="111.58" cy="218.57" r="16.21"/><circle cx="285.9" cy="184.58" r="16.21"/><g><path d="m334.2,132.19c5.67,0,10.92-1.68,15.42-4.44v-22.32c-13.98-8.49-27.97-13.31-41.95-15.65-1.89,3.9-3.04,8.22-3.04,12.84,0,16.34,13.24,29.58,29.58,29.58Z"/><path d="m64.22,271.27c-5.03,0-9.7,1.37-13.84,3.59v19.71c13.92,8.45,27.85,13.26,41.77,15.62.99-2.95,1.65-6.06,1.65-9.35,0-16.34-13.24-29.58-29.58-29.58Z"/><path d="m334.2,235.87c-16.34,0-29.58,13.24-29.58,29.58,0,4.9,1.31,9.46,3.42,13.53,12.64,2.17,25.29,6.47,37.93,13.58,1.28-.56,2.47-1.26,3.65-1.98v-50.27c-4.5-2.77-9.75-4.44-15.42-4.44Z"/><path d="m93.8,134.71c0-5.09-1.4-9.81-3.67-13.99-12.19-2.28-24.37-6.6-36.56-13.53-1.11.43-2.15.98-3.19,1.53v51.98c4.15,2.22,8.81,3.59,13.84,3.59,16.34,0,29.58-13.24,29.58-29.58Z"/></g></svg>