<?xml version="1.0" encoding="UTF-8"?><svg id="Layer_2" xmlns="http://www.w3.org/2000/svg" viewBox="0 0 400 400"><defs><style>.cls-1{fill:none;stroke:#000;stroke-linecap:round;stroke-linejoin:round;stroke-width:16px;}</style></defs><path class="cls-1" d="m168.9,44.14l-21.91,7.76c-2.54,11.54-10.8,21.55-22.75,25.79-11.96,4.24-24.67,1.66-33.91-5.71l-21.91,7.76-28.64,76.4,47.53,18.61,7.41-20.77,22.18,62.61,100.48-35.6-22.18-62.61,18.83,11.47,25.21-44.38-70.35-41.33Z"/><g><path class="cls-1" d="m273.4,186.4c-.36,1.69-.81,3.38-1.33,5.06-6.96,22.26-26.34,37.03-47.52,38.47"/><polygon class="cls-1" points="247 176.74 188.28 310.92 244.2 335.27 290.3 231.85 293.24 232.77 272.25 344.04 332.08 355.86 360.22 212.13 247 176.74"/><path class="cls-1" d="m333.02,205.03c-.66,1.59-1.26,3.23-1.79,4.92-6.96,22.26.56,45.44,17.16,58.68"/></g></svg>