<?xml version="1.0" encoding="UTF-8"?><svg id="Layer_1" xmlns="http://www.w3.org/2000/svg" viewBox="0 0 400 400"><defs><style>.cls-1{fill:none;stroke:#000;stroke-miterlimit:10;stroke-width:16px;}</style></defs><path class="cls-1" d="m266.47,131.32c-42.26-3.21-75.76-37.69-77.42-80.36l-.81-.12c-8.81-1.32-17.81.19-25.72,4.31l-59.71,31.09c-7.9,4.11-14.3,10.63-18.27,18.6l-30.03,60.26c-3.97,7.97-5.32,17-3.85,25.79l11.12,66.4c1.47,8.79,5.69,16.88,12.04,23.13l48.03,47.18c6.36,6.24,14.52,10.32,23.34,11.63l66.59,9.94c8.81,1.32,17.81-.19,25.72-4.31l59.71-31.09c7.9-4.11,14.3-10.63,18.27-18.6l30.03-60.26c3.59-7.21,5.03-15.29,4.19-23.26-44.86-.33-81.35-35.85-83.22-80.33Z"/><circle cx="135.43" cy="159.22" r="15.94"/><circle cx="219.63" cy="201.02" r="15.94"/><circle cx="263.83" cy="265.07" r="15.94"/><circle cx="156.48" cy="265.97" r="15.94"/></svg>