<?xml version="1.0" encoding="UTF-8"?><svg id="Layer_1" xmlns="http://www.w3.org/2000/svg" viewBox="0 0 400 400"><defs><style>.cls-1{fill:none;stroke:#000;stroke-linecap:round;stroke-linejoin:round;stroke-width:16px;}</style></defs><path class="cls-1" d="m262.46,157.55h46.45c19.79,0,35.83,16.04,35.83,35.83v53.82c0,13.67-7.78,26.15-20.06,32.17l-61.41,30.1"/><path class="cls-1" d="m240.18,64.05c-10.66,0-20.32,4.25-27.4,11.13-9.43-15.15-26.23-25.25-45.39-25.25s-35.96,10.09-45.39,25.25c-7.08-6.89-16.74-11.13-27.4-11.13-21.72,0-39.32,17.6-39.32,39.32s17.6,39.32,39.32,39.32c10.66,0,20.32-4.25,27.4-11.13,9.43,15.15,26.23,25.25,45.39,25.25s35.96-10.09,45.39-25.25c7.08,6.89,16.74,11.13,27.4,11.13,21.72,0,39.32-17.6,39.32-39.32s-17.6-39.32-39.32-39.32Z"/><path class="cls-1" d="m212.78,131.56c-9.43,15.15-26.23,25.25-45.39,25.25s-35.96-10.09-45.39-25.25c-7.08,6.89-16.74,11.13-27.4,11.13-7.56,0-14.61-2.14-20.6-5.83v178.24c0,19.3,15.65,34.95,34.95,34.95h118.84c19.3,0,34.95-15.65,34.95-34.95v-179.53c-6.39,4.48-14.16,7.12-22.55,7.12-10.66,0-20.32-4.25-27.4-11.13Z"/><g><line class="cls-1" x1="126.68" y1="189.82" x2="126.68" y2="302.74"/><line class="cls-1" x1="168.36" y1="189.82" x2="168.36" y2="302.74"/><line class="cls-1" x1="210.03" y1="189.82" x2="210.03" y2="302.74"/></g></svg>