<?xml version="1.0" encoding="UTF-8"?><svg id="Layer_1" xmlns="http://www.w3.org/2000/svg" viewBox="0 0 400 400"><defs><style>.cls-1,.cls-2{fill:none;stroke:#000;stroke-miterlimit:10;stroke-width:16px;}.cls-2{stroke-linecap:round;}</style></defs><path class="cls-1" d="m277.42,274.66c-38.29,38.29-89.45,53.11-130.61,41.96-8.64-2.34-17.87-1.48-25.99,2.29-13.46,6.24-27.77,5.49-36.49-3.23-8.72-8.72-9.48-23.03-3.23-36.49,3.77-8.12,4.63-17.35,2.29-25.99-11.16-41.16,3.67-92.32,41.96-130.61,38.67-38.67,90.46-53.4,131.83-41.62,8.22,2.34,16.96,2.03,24.94-1.02,12.52-4.79,25.36-3.53,33.42,4.53,8.06,8.06,9.31,20.9,4.53,33.42-3.05,7.98-3.36,16.72-1.02,24.94,11.79,41.37-2.95,93.16-41.62,131.83Z"/><path class="cls-2" d="m117.21,214.48c6.63-21.94,19.34-43.59,37.82-62.07,17.12-17.12,36.97-29.3,57.24-36.27"/></svg>