<?xml version="1.0" encoding="UTF-8"?><svg id="Layer_1" xmlns="http://www.w3.org/2000/svg" viewBox="0 0 400 400"><defs><style>.cls-1{fill:none;stroke:#000;stroke-linecap:round;stroke-linejoin:round;stroke-width:16px;}</style></defs><path class="cls-1" d="m289.68,345.61H110.32c-10.95,0-19.82-8.88-19.82-19.82v-146.32c0-5.95,2.62-11.29,6.77-14.92,3.49-3.05,8.05-4.9,13.05-4.9h179.36c10.95,0,19.82,8.88,19.82,19.82v146.32c0,10.95-8.88,19.82-19.82,19.82Z"/><circle cx="201.73" cy="252" r="30.99"/><path class="cls-1" d="m142.04,158.23v-43.76c0-17.52,7.5-33.29,19.47-44.27,10.69-9.82,24.95-15.81,40.62-15.81h0c33.18,0,60.08,26.9,60.08,60.08v43.76"/></svg>