<svg width="24" height="16" viewBox="0 0 24 16" fill="none" xmlns="http://www.w3.org/2000/svg">
<path d="M2.65256 0H21.3474C23.1111 0 24 0.786667 24 2.38667V13.6133C24 15.2 23.1111 16 21.3474 16H2.65256C0.888889 16 0 15.2 0 13.6133V2.38667C0 0.786667 0.888889 0 2.65256 0ZM11.9929 11.4667L21.5026 4.09333C21.8413 3.82667 22.1093 3.21333 21.6861 2.66667C21.2769 2.12 20.5291 2.10667 20.0353 2.44L11.9929 7.58667L3.96473 2.44C3.4709 2.10667 2.7231 2.12 2.31393 2.66667C1.89065 3.21333 2.15873 3.82667 2.49735 4.09333L11.9929 11.4667Z" fill="white"/>
</svg>
