<?xml version="1.0" encoding="UTF-8"?><svg id="Layer_1" xmlns="http://www.w3.org/2000/svg" viewBox="0 0 400 400"><defs><style>.cls-1,.cls-2{fill:none;stroke:#000;stroke-miterlimit:10;stroke-width:16px;}.cls-2{stroke-linecap:round;}</style></defs><path class="cls-1" d="m56.98,232.08c9.76,37.31,36.19,68.61,71.6,86.78v6.32c0,10.94,8.87,19.81,19.81,19.81h102.82c10.94,0,19.81-8.87,19.81-19.81v-6.32c35.42-18.17,61.84-49.47,71.6-86.78,1.49-5.7-2.79-11.27-8.68-11.27H65.66c-5.89,0-10.17,5.58-8.68,11.27Z"/><path class="cls-2" d="m285.08,98.83c-8.31-4.74-17.92-7.45-28.17-7.45-4.54,0-8.96.55-13.2,1.56-9.56-22.29-31.7-37.91-57.5-37.91s-47.94,15.62-57.5,37.91c-4.24-1.01-8.65-1.56-13.2-1.56-31.42,0-56.89,25.47-56.89,56.89,0,20.7,11.06,38.82,27.59,48.77"/><path class="cls-2" d="m340.56,198.37c1.78-5.42,2.75-11.2,2.75-17.22,0-30.47-24.7-55.17-55.17-55.17s-55.17,24.7-55.17,55.17c0,6.01.98,11.8,2.75,17.22"/><line class="cls-2" x1="181.32" y1="104.98" x2="181.32" y2="173.92"/><line class="cls-2" x1="151.91" y1="187.22" x2="107.75" y2="142.54"/></svg>