<?xml version="1.0" encoding="UTF-8"?><svg id="Layer_1" xmlns="http://www.w3.org/2000/svg" viewBox="0 0 400 400"><defs><style>.cls-1,.cls-2{fill:none;stroke:#000;stroke-linejoin:round;stroke-width:16px;}.cls-2{stroke-linecap:round;}</style></defs><path class="cls-2" d="m153.93,84.83l-25.48,51.49c-2.98,6.03-4.54,12.66-4.54,19.39v158.75c0,16.6,13.46,30.07,30.07,30.07h92.87c16.6,0,30.07-13.46,30.07-30.07v-158.75c0-6.73-1.55-13.36-4.54-19.39l-25.48-51.49h-92.96Z"/><rect class="cls-2" x="132.45" y="55.48" width="135.91" height="29.22" rx="9.65" ry="9.65"/><path class="cls-1" d="m125.5,141.22c24.78,0,24.78,8,49.56,8s24.78-8,49.57-8,24.78,8,49.57,8"/><line class="cls-1" x1="124.72" y1="193.22" x2="276.16" y2="193.22"/><line class="cls-1" x1="124.72" y1="278.52" x2="276.16" y2="278.52"/><g><path d="m173.55,223.85l-12.81,17.08h-1.46l-12.53-17.14v28.6h-7.42v-39.34h8.54l12.31,16.92,12.31-16.92h8.49v39.34h-7.42v-28.55Z"/><path d="m187.99,252.34v-39.34h7.36v39.34h-7.36Z"/><path d="m209.74,213.01v32.48h20.23v6.86h-27.65v-39.34h7.42Z"/><path d="m266.78,213.23l-17.48,18.83,18.94,19.84v.45h-9.16l-16.47-17.42v17.42h-7.42v-39.34h7.42v16.63l14.95-16.63h9.22v.23Z"/></g><path class="cls-2" d="m276.84,149.78h20.44c9.51,0,17.22,7.71,17.22,17.22v23.84c0,5.99-3.11,11.55-8.22,14.68l-28,17.17"/><path class="cls-2" d="m123.16,149.78h-20.44c-9.51,0-17.22,7.71-17.22,17.22v23.84c0,5.99,3.11,11.55,8.22,14.68l28,17.17"/></svg>