<?xml version="1.0" encoding="UTF-8"?><svg id="Layer_1" xmlns="http://www.w3.org/2000/svg" viewBox="0 0 400 400"><defs><style>.cls-1{fill:none;stroke:#000;stroke-linecap:round;stroke-linejoin:round;stroke-width:16px;}</style></defs><path class="cls-1" d="m231.72,189.34l-36.36-124.88c-3.58-12.28-16.17-19.67-28.6-16.65-27.88,6.78-54.32,21.06-76.09,42.84-21.78,21.78-36.05,48.21-42.84,76.09-3.02,12.43,4.37,25.02,16.65,28.6l124.88,36.36c6.72,1.96,13.97.1,18.93-4.85l18.58-18.58c4.95-4.95,6.81-12.2,4.85-18.93Z"/><path class="cls-1" d="m62.01,194.47c-6.4,17.96-8.43,37.75-5.02,57.88,3.67,21.6,13.12,40.76,26.5,56.17,5.96,6.87,16.31,7.77,23.44,2.12l72.5-57.46c3.9-3.09,5.81-8.07,4.98-12.97l-1.78-10.46-118.16-34.4c-.85-.25-1.67-.54-2.47-.87Z"/><path class="cls-1" d="m102.97,312.98c2.77,2.94,5.69,5.79,8.76,8.53,16.78,14.98,36.18,25.16,56.51,30.64,14.55,3.92,28.18-8.78,25.37-23.58l-14.29-75.3-72.39,57.38c-1.24.98-2.57,1.75-3.96,2.34Z"/><path class="cls-1" d="m194.46,62.02c17.96-6.4,37.75-8.43,57.88-5.02,21.6,3.67,40.76,13.12,56.17,26.5,6.87,5.96,7.77,16.31,2.12,23.44l-57.46,72.5c-3.09,3.9-8.07,5.81-12.97,4.98l-10.46-1.78-34.4-118.16c-.25-.85-.54-1.67-.87-2.47Z"/><path class="cls-1" d="m312.97,102.98c2.94,2.77,5.79,5.69,8.53,8.76,14.98,16.78,25.16,36.18,30.64,56.51,3.92,14.55-8.78,28.18-23.58,25.37l-75.3-14.29,57.38-72.39c.98-1.24,1.75-2.57,2.34-3.96Z"/></svg>