<?xml version="1.0" encoding="UTF-8"?><svg id="Layer_2" xmlns="http://www.w3.org/2000/svg" viewBox="0 0 400 400"><defs><style>.cls-1{fill:none;stroke:#000;stroke-linecap:round;stroke-linejoin:round;stroke-width:16px;}</style></defs><line class="cls-1" x1="72.3" y1="309.47" x2="327.7" y2="309.47"/><g><path class="cls-1" d="m119.71,65.05c-.68-.42-1.37-.85-2.05-1.29l-30.34,17.07-25.29,124.54,12.64,130.86h250.66l12.64-130.86-25.29-124.54-30.34-17.07c-.69.44-1.37.87-2.05,1.29"/><path class="cls-1" d="m174.4,182.3c0,1.45-.04,2.89-.1,4.33,8.07,2.73,16.71,4.2,25.7,4.2h0c8.99,0,17.63-1.48,25.7-4.2-.06-1.44-.1-2.88-.1-4.33,0-38.95,22.22-72.71,54.68-89.29v-27.96c-38.68,23.91-72.86,21.47-72.86,21.47h-14.86s-34.18,2.44-72.86-21.47v27.96c32.46,16.58,54.68,50.34,54.68,89.29Z"/><path class="cls-1" d="m119.71,93.01v17.54c0,35.35,22.85,65.37,54.58,76.08.06-1.44.1-2.88.1-4.33,0-38.95-22.22-72.71-54.68-89.29Z"/><path class="cls-1" d="m280.29,110.55v-17.54c-32.46,16.58-54.68,50.34-54.68,89.29,0,1.45.04,2.89.1,4.33,31.74-10.72,54.58-40.73,54.58-76.08Z"/></g></svg>