<?xml version="1.0" encoding="UTF-8"?><svg id="Layer_1" xmlns="http://www.w3.org/2000/svg" viewBox="0 0 400 400"><defs><style>.cls-1{fill:none;stroke:#000;stroke-linecap:round;stroke-linejoin:round;stroke-width:16px;}</style></defs><path class="cls-1" d="m65.32,177.27v130.74c0,7.53,2.71,14.43,7.2,19.76,5.61,6.67,14.02,10.91,23.41,10.91h208.13c16.9,0,30.61-13.74,30.61-30.68v-131.69"/><path class="cls-1" d="m155.4,332.08v-83.33c0-9.31,4.15-17.66,10.72-23.32,5.47-4.72,12.62-7.57,20.43-7.57h26.9c17.2,0,31.15,13.83,31.15,30.9v83.33"/><path class="cls-1" d="m351.63,163.58l-31.3-102.26H79.66l-31.3,102.26.27,3.79c9.83,4.92,20.92,7.69,32.65,7.69,25.13,0,47.28-12.7,60.42-32.03,13.13,19.33,35.29,32.03,60.42,32.03s47.28-12.7,60.42-32.03c13.13,19.33,35.29,32.03,60.42,32.03,10.08,0,19.68-2.04,28.42-5.74l.27-5.75Z"/><line class="cls-1" x1="141.71" y1="143.75" x2="148.32" y2="65.88"/><line class="cls-1" x1="255.93" y1="65.88" x2="262.54" y2="143.75"/></svg>