<svg width="14" height="22" viewBox="0 0 14 22" fill="none" xmlns="http://www.w3.org/2000/svg">
<path d="M5.5 19H8.5C8.63333 19 8.75 18.95 8.85 18.85C8.95 18.75 9 18.6333 9 18.5C9 18.3667 8.95 18.25 8.85 18.15C8.75 18.05 8.63333 18 8.5 18H5.5C5.36667 18 5.25 18.05 5.15 18.15C5.05 18.25 5 18.3667 5 18.5C5 18.6333 5.05 18.75 5.15 18.85C5.25 18.95 5.36667 19 5.5 19ZM2 22C1.45 22 0.979333 21.8043 0.588 21.413C0.196 21.021 0 20.55 0 20V2C0 1.45 0.196 0.979 0.588 0.587C0.979333 0.195667 1.45 0 2 0H12C12.55 0 13.021 0.195667 13.413 0.587C13.8043 0.979 14 1.45 14 2V20C14 20.55 13.8043 21.021 13.413 21.413C13.021 21.8043 12.55 22 12 22H2ZM2 15H12V5H2V15Z" fill="white"/>
</svg>
