<?xml version="1.0" encoding="UTF-8"?><svg id="Layer_1" xmlns="http://www.w3.org/2000/svg" viewBox="0 0 400 400"><defs><style>.cls-1{fill:none;stroke:#000;stroke-linecap:round;stroke-linejoin:round;stroke-width:16px;}</style></defs><path class="cls-1" d="m285.9,182.38h-8.63c.65-4,1.07-8.08,1.07-12.27,0-42.23-34.23-76.46-76.46-76.46s-76.46,34.23-76.46,76.46c0,4.19.43,8.27,1.07,12.27h-12.4c-16.88,0-32.19,6.75-43.37,17.69-11.49,11.25-18.62,26.94-18.62,44.29,0,34.24,27.75,61.99,61.99,61.99h171.81c17.12,0,32.61-6.94,43.83-18.16,11.22-11.22,18.16-26.71,18.16-43.83,0-34.23-27.75-61.99-61.99-61.99Z"/><line class="cls-1" x1="203.62" y1="257.27" x2="203.62" y2="162.79"/><polyline class="cls-1" points="170.24 193.99 203.62 160.61 237 193.99"/></svg>